# XSI Wavefront OBJ Export v3.0
# File Created: Fri Dec 23 11:14:59 2005
# XSI Version: 5.0.2005.1013-1

o cone
# Hierarchy (from self to top father)
g cone

#begin 5 vertices
v 0.000000 -1.333333 0.000000
v 0.000000 2.666667 0.000000
v -1.000000 -1.333333 -0.000000
v 0.500000 -1.333333 0.866025
v 0.500000 -1.333333 -0.866025
#end 5 vertices

#begin 18 normals
vn 0.000000 -1.000000 0.000000
vn 0.000000 -1.000000 0.000000
vn 0.000000 -1.000000 0.000000
vn -0.496139 0.124035 0.859338
vn -0.496139 0.124035 0.859338
vn -0.496139 0.124035 0.859338
vn 0.000000 -1.000000 0.000000
vn 0.000000 -1.000000 0.000000
vn 0.000000 -1.000000 0.000000
vn 0.992278 0.124035 0.000000
vn 0.992278 0.124035 0.000000
vn 0.992278 0.124035 0.000000
vn 0.000000 -1.000000 0.000000
vn 0.000000 -1.000000 0.000000
vn 0.000000 -1.000000 0.000000
vn -0.496139 0.124035 -0.859338
vn -0.496139 0.124035 -0.859338
vn -0.496139 0.124035 -0.859338
#end 18 vertex normals

#begin 6 faces
usemtl scene_material
f 4//1 3//2 1//3 
usemtl scene_material
f 3//4 4//5 2//6 
usemtl scene_material
f 5//7 4//8 1//9 
usemtl scene_material
f 4//10 5//11 2//12 
usemtl scene_material
f 3//13 5//14 1//15 
usemtl scene_material
f 5//16 3//17 2//18 
#end 6 faces
